<?xml version="1.0" encoding="utf-8"?>
<!-- Generator: Adobe Illustrator 16.0.0, SVG Export Plug-In . SVG Version: 6.00 Build 0)  -->
<!DOCTYPE svg PUBLIC "-//W3C//DTD SVG 1.1//EN" "http://www.w3.org/Graphics/SVG/1.1/DTD/svg11.dtd">
<svg version="1.1" id="Capa_1" xmlns="http://www.w3.org/2000/svg" xmlns:xlink="http://www.w3.org/1999/xlink" x="0px" y="0px"
	 width="16px" height="16px" viewBox="0 0 16 16" enable-background="new 0 0 16 16" xml:space="preserve">
<g>
	<path fill="#3A424B" d="M15.152,10.666h-2.006v1.696h2.006c0.468,0,0.848-0.38,0.848-0.849S15.62,10.666,15.152,10.666z"/>
	<path fill="#3A424B" d="M5.4,0.914c0-0.469-0.38-0.848-0.848-0.848c-0.469,0-0.849,0.379-0.849,0.848V2.79H5.4V0.914z"/>
	<path fill="#3A424B" d="M14.99,1.697c0.221-0.221,0.221-0.578,0-0.799s-0.578-0.221-0.8,0l-2.739,2.74c-0.001,0-0.001,0-0.002,0
		H0.848C0.38,3.638,0,4.018,0,4.486c0,0.469,0.38,0.849,0.848,0.849h8.906L5.4,9.688V6.183H3.703v5.331
		c0,0.469,0.379,0.849,0.849,0.849h5.2v-1.696h-3.73l4.58-4.58v9c0,0.469,0.379,0.849,0.848,0.849s0.849-0.38,0.849-0.849
		c0,0-0.005-10.658-0.009-10.688L14.99,1.697z"/>
</g>
</svg>
